# xmcd CD database file
#
# Track frame offsets:
#	150
#	23902
#	44075
#	59130
#	75752
#	90257
#	110871
#	133162
#	151635
#	166061
#	182004
#	193419
#
# Disc length: 3196 seconds
#
# Revision: 0
# Processed by: cddbd v1.5.2PL0 Copyright (c) Steve Scherf et al.
# Submitted via: CDex 1.70beta2
#
DISCID=9b0c7a0c
DTITLE=Bebel Gilberto - Momento
DYEAR=2006
DGENRE=Jazz
TTITLE0=Momento
TTITLE1=Bring Back the Love
TTITLE2=Close to you
TTITLE3=Os Novos Yorkinos
TTITLE4=Azul
TTITLE5=Cacada
TTITLE6=Night and Day
TTITLE7=Tranquilo
TTITLE8=Un Segundo
TTITLE9=Cade Voce?
TTITLE10=Words
TTITLE11=Bring Back the Love (Prince Thomas Remix)
EXTD=YEAR: 2006
EXTT0=
EXTT1=
EXTT2=
EXTT3=
EXTT4=
EXTT5=
EXTT6=
EXTT7=
EXTT8=
EXTT9=
EXTT10=
EXTT11=
PLAYORDER=
